<svg xmlns="http://www.w3.org/2000/svg" version="1.1" xmlns:xlink="http://www.w3.org/1999/xlink" xmlns:svgjs="http://svgjs.com/svgjs" width="1440" height="250" preserveAspectRatio="none" viewBox="0 0 1440 250"><g mask="url(&quot;#SvgjsMask1014&quot;)" fill="none"><rect width="1440" height="250" x="0" y="0" fill="url(#SvgjsLinearGradient1015)"></rect><path d="M24 250L274 0L610 0L360 250z" fill="url(#SvgjsLinearGradient1016)"></path><path d="M284.6 250L534.6 0L708.6 0L458.6 250z" fill="url(#SvgjsLinearGradient1016)"></path><path d="M500.20000000000005 250L750.2 0L886.7 0L636.7 250z" fill="url(#SvgjsLinearGradient1016)"></path><path d="M729.8000000000001 250L979.8000000000001 0L1321.8000000000002 0L1071.8000000000002 250z" fill="url(#SvgjsLinearGradient1016)"></path><path d="M1392 250L1142 0L1019 0L1269 250z" fill="url(#SvgjsLinearGradient1017)"></path><path d="M1161.4 250L911.4000000000001 0L824.4000000000001 0L1074.4 250z" fill="url(#SvgjsLinearGradient1017)"></path><path d="M930.8 250L680.8 0L407.79999999999995 0L657.8 250z" fill="url(#SvgjsLinearGradient1017)"></path><path d="M702.1999999999999 250L452.19999999999993 0L240.69999999999993 0L490.69999999999993 250z" fill="url(#SvgjsLinearGradient1017)"></path><path d="M1277.9310479644084 250L1440 87.93104796440844L1440 250z" fill="url(#SvgjsLinearGradient1016)"></path><path d="M0 250L162.06895203559156 250L 0 87.93104796440844z" fill="url(#SvgjsLinearGradient1017)"></path></g><defs><mask id="SvgjsMask1014"><rect width="1440" height="250" fill="#ffffff"></rect></mask><linearGradient x1="20.66%" y1="-119%" x2="79.34%" y2="219%" gradientUnits="userSpaceOnUse" id="SvgjsLinearGradient1015"><stop stop-color="#0e2a47" offset="0"></stop><stop stop-color="#00459e" offset="1"></stop></linearGradient><linearGradient x1="0%" y1="100%" x2="100%" y2="0%" id="SvgjsLinearGradient1016"><stop stop-color="rgba(15, 70, 185, 0.2)" offset="0"></stop><stop stop-opacity="0" stop-color="rgba(15, 70, 185, 0.2)" offset="0.66"></stop></linearGradient><linearGradient x1="100%" y1="100%" x2="0%" y2="0%" id="SvgjsLinearGradient1017"><stop stop-color="rgba(15, 70, 185, 0.2)" offset="0"></stop><stop stop-opacity="0" stop-color="rgba(15, 70, 185, 0.2)" offset="0.66"></stop></linearGradient></defs></svg>